<!-- Generator: Adobe Illustrator 23.0.1, SVG Export Plug-In  -->
<svg version="1.1" xmlns="http://www.w3.org/2000/svg" xmlns:xlink="http://www.w3.org/1999/xlink" x="0px" y="0px" width="11px"
	 height="11px" viewBox="0 0 11 11" style="enable-background:new 0 0 11 11;" xml:space="preserve">
<style type="text/css">
	.st0{fill:#2AFF80;}
	.st1{fill:#141414;}
</style>
<defs>
</defs>
<path class="st0" d="M10.1,11H0.9C0.4,11,0,10.6,0,10.1V0.9C0,0.4,0.4,0,0.9,0h9.2C10.6,0,11,0.4,11,0.9v9.2
	C11,10.6,10.6,11,10.1,11z"/>
<path class="st1" d="M6.4,5.5C6.2,5.5,6,5.7,6,5.9c0,0.2,0.2,0.4,0.4,0.4h0v0.6c0,0.2,0.2,0.4,0.4,0.4s0.4-0.2,0.4-0.4V6.3l1,0v0.6
	c0,0.2,0.2,0.4,0.4,0.4s0.4-0.2,0.4-0.4V6.3l0.6,0v0.3C9.7,6.8,9.9,7,10.1,7s0.4-0.2,0.4-0.4V5.5L6.4,5.5L6.4,5.5z M9.7,5.2h0.8V4.4
	H9.7V2.8l-0.4-1H6.2l-0.4,1v2.4H9.7z M8.9,4.4H8.3V3.6H7.2v0.8H6.6V2.9l0.2-0.4h2l0.2,0.4L8.9,4.4L8.9,4.4z M3.9,5.6
	C3.7,5.5,3.5,5.5,3.3,5.7c0,0,0,0,0,0L0.6,8.8C0.5,9,0.5,9.2,0.6,9.3c0,0,0,0,0,0c0.1,0.1,0.2,0.1,0.3,0.1c0.1,0,0.2,0,0.3-0.1
	L4,6.1C4.1,6,4.1,5.7,3.9,5.6z M0.9,6.3c0.1,0,0.2,0,0.3-0.1l2.7-2.3c0.2-0.1,0.2-0.4,0-0.5c-0.1-0.1-0.4-0.2-0.6,0L0.6,5.6
	C0.5,5.8,0.5,6,0.6,6.2C0.7,6.2,0.8,6.3,0.9,6.3z M5.1,7.7L4.9,7.6C4.4,7.4,3.9,7.4,3.5,7.6L3.3,7.8C3.1,7.9,3,8.1,3.1,8.3
	s0.3,0.3,0.5,0.2l0.2-0.1c0.2-0.1,0.5-0.1,0.7,0l0.2,0.1c0.3,0.1,0.7,0.1,1,0.1l0.4-0.1c0.1,0,0.3,0,0.5,0L7,8.4
	c0.3,0.1,0.7,0.1,1.1,0l0.6-0.2c0.2-0.1,0.5-0.1,0.7,0l0.6,0.3c0.1,0,0.1,0,0.2,0c0.1,0,0.3-0.1,0.4-0.2c0.1-0.2,0-0.4-0.2-0.5
	L9.7,7.6C9.3,7.4,8.8,7.4,8.4,7.5L7.8,7.7c-0.2,0.1-0.4,0.1-0.5,0L6.9,7.6C6.6,7.5,6.3,7.5,6,7.6L5.6,7.7C5.4,7.7,5.3,7.7,5.1,7.7z
	 M10.2,9.1L9.6,8.8C9.3,8.6,8.8,8.6,8.4,8.8L7.8,9C7.6,9,7.4,9,7.3,9L6.9,8.9c-0.3-0.1-0.6-0.1-0.8,0L5.6,8.9c-0.1,0-0.3,0-0.4,0
	L4.8,8.8C4.4,8.7,4,8.7,3.6,8.9L3.4,8.9C3.3,9,3,9,2.9,9L2.4,8.8C2.2,8.7,2,8.8,1.9,9c-0.1,0.2,0,0.4,0.2,0.5l0.4,0.2
	C3,9.8,3.4,9.8,3.8,9.6l0.1-0.1c0.2-0.1,0.4-0.1,0.6,0l0.3,0.1c0.3,0.1,0.6,0.1,0.9,0.1l0.5-0.1c0.1,0,0.3,0,0.4,0L7,9.7
	c0.3,0.1,0.7,0.1,1,0l0.7-0.2c0.2-0.1,0.4-0.1,0.6,0l0.6,0.3c0.1,0,0.1,0,0.2,0c0.1,0,0.3-0.1,0.4-0.2C10.5,9.4,10.4,9.2,10.2,9.1
	C10.2,9.1,10.2,9.1,10.2,9.1z M4.6,6.4c-0.2,0-0.3,0.1-0.3,0.3c0,0.2,0.1,0.3,0.3,0.3h0.1c0,0.1,0.1,0.2,0.3,0.2
	c0.2,0,0.3-0.1,0.3-0.3V1.5c0-0.2-0.1-0.3-0.3-0.3S4.7,1.3,4.7,1.5v0.8H4.6c-0.2,0-0.3,0.1-0.3,0.3c0,0.2,0.1,0.3,0.3,0.3l0,0h0.1
	v0.8H4.6C4.4,3.7,4.3,3.8,4.3,4s0.1,0.3,0.3,0.3l0,0h0.1v0.8H4.6c-0.2,0-0.3,0.1-0.3,0.3c0,0.2,0.1,0.3,0.3,0.3l0,0h0.1v0.8L4.6,6.4
	L4.6,6.4z"/>
</svg>
